<?xml version="1.0" encoding="utf-8"?>
<!-- Generator: Adobe Illustrator 15.0.0, SVG Export Plug-In . SVG Version: 6.00 Build 0)  -->
<!DOCTYPE svg PUBLIC "-//W3C//DTD SVG 1.1//EN" "http://www.w3.org/Graphics/SVG/1.1/DTD/svg11.dtd">
<svg version="1.1" id="Logo" xmlns="http://www.w3.org/2000/svg" xmlns:xlink="http://www.w3.org/1999/xlink" x="0px" y="0px"
	 width="143px" height="118px" viewBox="0 0 143 118" enable-background="new 0 0 143 118" xml:space="preserve">
<g id="Tower">
	<path fill="#971B22" d="M68.341,33.013c-0.029,0.251-0.083,0.687-0.018,0.904c-0.76,0.524-1.825,1.528-2.68,0.526
		C66.827,34.996,67.839,33.776,68.341,33.013z"/>
	<path fill="#971B22" d="M65.898,50.816c-1.896,0.353-2.919,0.539-4.655,1.368c-0.011-0.276,0.006-0.478,0.082-0.596
		c0.449-0.163,2.725-1.188,4.539-1.203L65.898,50.816z"/>
	<path fill="#971B22" d="M66.01,51.983c-1.935,0.449-3.339,0.799-4.964,1.552c-0.039-0.046-0.033-0.56,0.008-0.637
		c0.947-0.521,3.112-1.258,4.956-1.407V51.983z"/>
	<path fill="#971B22" d="M66.025,53.285c-1.966,0.457-3.374,0.739-5.06,1.47c-0.065-0.208-0.055-0.5,0-0.626
		c1.712-0.565,2.223-0.875,5.053-1.403C66.02,52.901,66.025,53.109,66.025,53.285z"/>
	<path fill="#971B22" d="M66.016,53.956c0,0.209,0,0.373,0,0.584c-1.916,0.365-3.646,0.921-5.05,1.439
		c-0.055-0.146-0.069-0.29,0.009-0.611C62.676,54.689,64,54.329,66.016,53.956z"/>
	<path fill="#971B22" d="M66.016,55.185c0,0.209,0,0.373,0,0.582c-1.916,0.366-3.646,0.921-5.05,1.44
		c-0.055-0.146-0.069-0.29,0.009-0.612C62.676,55.916,64,55.557,66.016,55.185z"/>
	<path fill="#971B22" d="M66.016,56.412c0,0.211,0,0.373,0,0.583c-1.916,0.366-3.646,0.921-5.05,1.44
		c-0.055-0.145-0.069-0.289,0.009-0.611C62.676,57.144,64,56.785,66.016,56.412z"/>
	<path fill="#971B22" d="M66.016,57.64c0,0.21,0,0.373,0,0.582c-1.916,0.366-3.646,0.922-5.05,1.44
		c-0.055-0.145-0.069-0.289,0.009-0.609C62.676,58.373,64,58.011,66.016,57.64z"/>
	<path fill="#971B22" d="M66.016,58.868c0,0.21,0,0.371,0,0.581c-1.916,0.367-3.646,0.922-5.05,1.441
		c-0.055-0.146-0.069-0.29,0.009-0.611C62.676,59.599,64,59.24,66.016,58.868z"/>
	<path fill="#971B22" d="M66.016,60.096c0,0.211,0,0.373,0,0.582c-1.916,0.368-3.646,0.922-5.05,1.439
		c-0.055-0.146-0.069-0.289,0.009-0.609C62.676,60.828,64,60.468,66.016,60.096z"/>
	<path fill="#971B22" d="M66.016,61.323c0,0.211,0,0.374,0,0.582c-1.916,0.367-3.646,0.924-5.05,1.44
		c-0.055-0.144-0.069-0.29,0.009-0.611C62.676,62.055,64,61.695,66.016,61.323z"/>
	<path fill="#971B22" d="M66.016,62.552c0,0.21,0,0.373,0,0.582c-1.916,0.366-3.646,0.921-5.05,1.438
		c-0.055-0.146-0.069-0.289,0.009-0.608C62.676,63.283,64,62.924,66.016,62.552z"/>
	<path fill="#971B22" d="M66.016,63.779c0,0.211,0,0.374,0,0.583c-1.916,0.366-3.646,0.922-5.05,1.438
		c-0.055-0.145-0.069-0.289,0.009-0.606C62.676,64.51,64,64.151,66.016,63.779z"/>
	<path fill="#971B22" d="M66.016,65.007c0,0.211,0,0.372,0,0.581c-1.916,0.367-3.646,0.924-5.05,1.439
		c-0.055-0.145-0.069-0.288,0.009-0.609C62.676,65.737,64,65.377,66.016,65.007z"/>
	<path fill="#971B22" d="M55.887,54.218c0.257,0.599-0.559,0.973-0.536,1.683C54.842,55.315,55.518,54.584,55.887,54.218z"/>
	<path fill="#971B22" d="M55.352,60.846c-0.46-0.096,0.041-0.897,0.106-1.158c-0.018-0.123-0.194-0.089-0.321-0.104
		c0.438-1.605-0.423-3.446,0.964-4.418c0.098,1.007-0.624,1.21-0.75,1.999c0.442-0.02,0.16-0.754,0.642-0.738
		c0.13,0.967-0.506,1.186-0.642,1.895c0.287,0.273,0.229-0.683,0.642-0.632c0.151,0.884-0.401,1.077-0.536,1.684
		c0.231,0.322,0.173-0.525,0.536-0.422C56.095,59.714,55.485,60.042,55.352,60.846z"/>
	<path fill="#971B22" d="M55.887,60.216c0.106,0.942-0.469,1.22-0.643,1.892C55.06,61.506,55.448,60.556,55.887,60.216z"/>
	<path fill="#971B22" d="M55.673,61.475c0.124-0.016,0.19,0.025,0.214,0.104c0.064,0.835-0.521,1.032-0.643,1.683
		C54.919,62.629,55.563,62.04,55.673,61.475z"/>
	<path fill="#971B22" d="M55.673,62.74c0.422,0.73-0.356,1.19-0.429,1.788C54.942,63.913,55.492,63.229,55.673,62.74z"/>
	<path fill="#971B22" d="M55.563,64.001c0.665,0.54-0.313,1.21-0.319,1.787C54.879,65.147,55.509,64.577,55.563,64.001z"/>
	<path fill="#971B22" d="M55.03,68.209c0.375-1.102-0.276-2.27,0.749-2.944c0.115,0.741-0.341,0.929-0.428,1.471
		c0.056,0.301,0.158-0.17,0.212-0.21C55.885,67.157,55.43,67.934,55.03,68.209z"/>
	<path fill="#971B22" d="M55.563,67.787c0.397,0.672-0.271,1.205-0.427,1.684C54.88,68.935,55.303,68.164,55.563,67.787z"/>
	<path fill="#971B22" d="M55.458,69.051c0.641,0.423-0.217,1.09-0.214,1.577c0.228,0.048,0.204-0.149,0.214-0.315
		c0.623,0.518-0.251,1.169-0.321,1.682C55.13,70.995,54.933,70.017,55.458,69.051z"/>
	<path fill="#971B22" d="M54.756,72.73c0.071,0.249-0.149,1.112-0.536,1.262C54.355,73.528,54.537,73.113,54.756,72.73z"/>
	<path fill="#971B22" d="M66.074,27.923c0.358,0.293-0.279,0.493-0.322,0.735C65.529,28.502,66.047,28.187,66.074,27.923z"/>
	<path fill="#971B22" d="M63.314,49.648c0.353-0.09,1.28-0.153,1.699,0.181c-1.801,0.286-2.024,0.438-3.026,0.776
		C62.142,50.24,62.489,49.885,63.314,49.648z"/>
	<path fill="#971B22" d="M67.466,29.711c0.408,0.155,0.022-0.471,0.43-0.316c0.377,1.267,0.407,2.133-0.106,3.367
		c-0.23-0.409-0.409-0.9-0.709-1.272c0.094-0.09,0.817-0.148,1.001-0.145c-0.016-0.123-0.917-0.146-1.042-0.163
		c0.058-0.417,0.511-1.129,0.551-1.373c-0.249,0.108-0.617,0.95-0.657,1.163c-0.307-0.526-0.429-0.934-0.752-1.263
		c0.01,1.054,2.809,4.377,0,3.893c0.161-0.602,0.693-1.498,0.662-2.196c-0.161,0.403-0.533,1.33-0.702,1.828
		c-0.5-0.21-0.479-0.84-0.494-1.527c0.257,0.042,0.687-0.143,1.135-0.287c-0.355-0.067-1.363,0.229-1.135-0.344
		c-0.384,0.8-0.096,1.742,0.105,2.525c-1.326-1.477-0.659-4.594,1.072-5.364c0.377,0.048,0.585,0.266,0.856,0.42
		c-0.032,0.144-0.268,0.087-0.429,0.106C67.425,29.207,67.871,29.2,67.466,29.711z"/>
	<path fill="#971B22" d="M92.754,50.176L94,48.834c-0.002-0.046-1.221-3.714-1.221-3.714c-0.658-0.024-1.449,0.075-2.369,0.051
		c-0.42-1.184,0.021-3.147,0.105-4.626c-0.432-1.084-1.572-1.472-1.607-2.947c-0.938-0.31-1.805,0.232-2.895,0.107
		c-0.193,0.292,0.104,0.831,0.107,1.261c-0.945,0.563-2.014-0.16-2.252-0.946c0.379-0.762,0.965-2.324,0.32-3.472
		c-0.367-0.455-0.867-0.474-0.965-0.736c-0.074-0.39,0.377-0.264,0.537-0.422c-0.596-0.538-0.732-1.208-0.645-2.209
		c0.113-0.274,0.564-0.22,0.645-0.525c-0.176-0.496-0.416-0.924-0.322-1.683c0.816-0.005,0.766-0.864,1.287-1.157
		c-0.227-0.76-0.307-1.666-0.646-2.315c-0.389-0.033-0.695,0.017-0.963,0.106c-0.916-0.583-0.879-2.072-1.287-3.052
		c-0.742-1.782-2.564-3.65-4.074-4.628c-0.346-1.378-1.834-1.636-3.002-2.208c0.355-0.46,0.281-1.337,0.645-1.789
		c-0.121-0.574-0.896-0.744-1.395-1.262c-0.205-0.214-0.275-0.709-0.535-0.946c-0.41-0.373-0.922-0.527-1.188-0.611
		c-0.006-0.575-0.074-1.355-0.096-2.3c2.438,0.525,4.164,0.817,4.49,0.874c0.383,0.068,0.854-0.298,0.508-0.46
		c-0.291-0.135-1.846-0.404-4.342-0.872l3.369-2.39c0,0,0.334-0.86-0.35-0.63c-0.326,0.112-1.586,1.095-3.643,2.687
		c-0.031-1.205-0.029-2.6-0.074-3.793c0.363,0.045,0.875,0.012,1.199-0.32c0.312-0.317,0.365-0.995-0.125-1.146l0.807-0.343
		l0.031,0.6c0.836-0.911,1.922-1.7,1.922-1.7s-1.207,0.47-1.996,0.338l0.027,0.502l-0.746,0.321
		c0.455-0.712-0.373-1.025-0.625-0.958c-0.281,0.074-0.436,0.216-0.57,0.354c-0.043-0.797-0.044-1.357-0.085-1.486
		c-0.197-0.633-0.356-0.377-0.423-0.002c-0.019,0.1-0.07,0.916-0.055,2.107c-0.056-0.151-0.199-0.173-0.564-0.115
		c-0.642,0.099-2.99,2.459-3.696,2.751c0.529,0.304,0.679,0.262,0.224,0.951c0.352-0.173,1.504-0.552,2.814-0.77
		c0.651-0.108,0.972-0.354,1.158-0.444c0,0-0.096,3.146-0.104,3.229c-2.583-0.477-4.718-0.863-5.042-0.896
		C65.611,7.13,66.32,7.501,66.32,7.501s2.409,0.588,5.048,1.156c-1.941,1.512-3.077,2.483-3.333,2.713
		c-0.569,0.507,0.18,0.228,0.18,0.228l3.122-2.178c0.021,0.801-0.001,1.216,0.021,1.718c0,0.011-0.001,0.02-0.001,0.028
		c-1.317,0.25-1.457,1.647-2.599,2.07c-0.049,1.22-0.19,1.886,0.64,2.487c-1.603,0.322-2.299,1.533-3.751,1.999
		c-1.396,1.536-1.878,2.667-2.361,4.081c0.039,0.197,0.053,0.333,0,0.42c-0.25,0.509-0.411,0.909-0.576,1.231
		c-0.226,0.082-1.808,1.089-2,1.208c0.438,0.991,0.13,1.454-0.319,2.524c-0.208,0.217-0.896-0.037-0.856,0.42
		c0.038,0.806,0.693,1.913,0.963,2.841c-0.425,0.829,0.613,2.39,0.233,3.683c-0.188-0.07-1.394-0.236-1.662-0.274
		c-0.199,0.085-1.598,1.275-1.25,1.64c0.332-0.318,1.064-1.012,1.347-1.284c0,0.351,0.034,0.978,0.034,1.33
		c-1.606-0.457-1.25,1.511-1.167,2.793c-0.179,0.12-0.866,0.647-1.287,0.947c0.458-0.762-0.519-1.219-0.155-2.229
		c0.311-0.859,1.285-0.471,1.335-1.454c-0.536,0.804-1.152,0.493-1.502,1.369c-0.438,1.098,0.65,2.046-0.336,2.876
		c-0.256,0.215-0.452,0.129-0.833,0.1c0,0.525-0.01,0.811-0.01,1.336c-0.371,0.227-2.915,1.911-3.417,2.34
		c-0.043,0.061,0.027,0.108,0.083,0.091c0.706-0.429,3.27-2.22,3.646-2.413c0.003-0.354-0.012-0.607-0.001-0.911
		c0.429,0,0.857,0.024,1.284,0.024c-0.055-0.219-0.034-0.623,0.037-0.781c0.185-0.272,0.827-0.662,1.196-0.883
		c-0.058,0.68,0.21,1.8-0.023,2.307c-0.391-0.142-0.673-0.255-1.081-0.379c-0.047,0.073-3.414,2.358-4.772,3.2l-0.277-0.07
		c0.418,0.358,0.669,0.615,0.937,0.68c0.072,0.318,0.168,0.693,0.228,1.082c-0.376,0.774-0.751,1.326-0.375,2.095
		c-0.5,0.076-2.18,0.107-2.71,0.201c0.074,0.237,0.248,0.783,0.421,1.228l0.447,0.085l0.109,0.824
		c0.475,1.159,0.854,2.411,1.084,2.929c0.045,0.099,0.258-0.007,0.302,0.091l-0.009,0.606l-0.542,0.063l0.041,0.602
		c0,0,0.804,1.286,0.816,1.713c0.15,5.483-0.254,13.014-0.221,17.985L52.996,74c-0.018-0.74,0.066-12.739,0.318-18.311
		c0.261-0.338,0.537-0.664,0.964-0.841c0.368-0.045,0.601,0.042,0.856,0.104c0.026-0.332,0.259-0.779-0.012-1.052
		c0,0.141,0.012,0.072,0.012,0.21c-0.234-0.002-2.685,0.082-2.873,0.021c-0.111-0.221,0.257-0.153,0.287-0.207
		c-0.025-0.074-0.019-0.668,0.049-0.659c0,0,1.693-0.021,2.625,0.012c0.021-0.337,0-1.106,0-1.696c0-0.318-0.08-0.772,0.051-1.185
		c0.128-0.411,0.591-0.732,0.52-0.952c-0.148-0.463,0.527-0.633,0.761-0.683c0.217-0.046,1.205,0.228,1.341,0.792
		c-1.693-0.326-1.792,0.044-1.938,0.284c0.04,0.016,0.398-0.207,0.74-0.254c0.448-0.042,0.922-0.01,1.122,0.248
		c-0.167,7.968-0.097,16.042-0.11,24.16c0.536,0,1.071,0,1.607,0c0-7.96,0-15.917,0-23.875c1.245-0.383,0.528-2.145,0.106-2.945
		c2.015-1.25,4.699-1.701,7.484-2.193c0.351,0.427,0.561,0.572,0.886,0.895c0.186-0.196,0.473-0.414,0.743-0.533
		c0.142-0.079,0.5-0.181,0.769-0.154c0.612,0.119,1.043,0.4,1.254,1.03c-0.967-0.333-1.741-0.298-2.172,0.146
		c0.618-0.228,1.172-0.057,1.43,0.144c0.066,8.765-0.125,17.422,0.113,25.807c0,0,0.016,0.519,0.016,0.626
		c0.65,0,1.04-0.009,1.484,0.007c0,0.35,0,0.7,0,1.05c0.859,0,1.419,0,2.279,0c-0.092-0.24,0.064-0.857,0.064-1.011
		c1.096,0.039,2.387-0.055,2.969,0.127c0.064,0.422,0.285,0.515,0.107,0.887l4.658-0.003c-0.1-8.164-0.158-16.544-0.215-23.772
		c0.27-0.19,0.266-0.651,0.537-0.841c0-0.352,0-0.701,0-1.052c0.176-0.294,0.895-0.463,1.285-0.211
		c0.211,8.595,0.289,17.449,0.67,25.876h8.23c-0.381-6.497-0.666-13.091-0.75-19.879l1.219-1.113l-0.449-1.223l-0.693-0.016v-1.367
		L92.754,50.176z M70.643,3.061c0.617,0.063-0.131,0.697-0.131,0.697l-2.122,1.061C68.389,4.819,70.173,3.014,70.643,3.061z
		 M71.13,4.528c-0.247,0.377-2.674,0.658-2.674,0.658l2.075-0.966C70.531,4.219,71.458,4.03,71.13,4.528z M57.281,44.962
		c0.024,0.193,0.034,0.881-0.039,1.265c-0.175,0.079-2.136,1.122-2.429,1.26c-0.049-0.149-0.278-0.175,0.483-0.587
		c0-0.124-0.002-0.565-0.013-0.697C55.818,45.804,56.898,45.155,57.281,44.962z M53.366,47.349
		c-0.299-0.542,0.377-1.151,0.521-1.609C54.421,45.989,53.272,46.703,53.366,47.349z M54.813,45.909
		c0.173-0.03,0.198,0.149,0.178,0.367c-0.805,0.716-1.157,1.595-1.245,2.593C53.125,47.524,53.886,46.662,54.813,45.909z
		 M52.822,44.213l-0.196-0.062c1.143-0.723,3.06-2.029,4.224-2.815c-0.032-0.007-0.019,0.247-0.019,0.247
		C55.504,42.528,54.242,43.394,52.822,44.213z M52.993,44.331c1.375-0.646,2.564-1.633,3.811-2.524
		c0.2,0.286,0.156,0.94,0.064,1.048c-0.715,0.593-2.842,1.793-3.687,2.358C53.165,44.84,53.082,44.593,52.993,44.331z
		 M50.436,48.309c0,0-0.006-0.024-0.027-0.164c0.419-0.035,2.017-0.124,2.497-0.137c0.01,0.046,0.027,0.19,0.027,0.19
		C52.074,48.2,51.292,48.309,50.436,48.309z M51.25,49.909c-0.015-0.23-0.062-0.662-0.062-0.784c0.375-0.031,2.066,0.014,2.585,0
		c0,0.28-0.014,0.5-0.014,0.78C52.903,49.906,52.109,49.909,51.25,49.909z M52.428,52.863c0.039-0.087-0.359-0.416,0.438-0.323
		c0,0,0.033-0.707,0.018-0.74c0.706,0.025,1.354-0.006,1.929-0.104c-0.002,0.459,0.115,0.798,0.217,1.155
		C54.197,52.79,53.21,52.879,52.428,52.863z M55.475,49.557c-0.289,0.348-0.603,0.821-0.742,1.629
		c-0.439-0.57,0.42-1.734,0.668-1.82C55.575,49.336,55.504,49.438,55.475,49.557z M54.599,48.96
		c0.006-0.034-0.059-0.256-0.051-0.365c0.006-0.092,0.736-0.412,0.775-0.437c0.01-0.228,0.014-0.598,0.014-0.598
		c0.25-0.2,1.701-0.912,1.944-1.021c0.051,0.466-0.086,0.976,0.062,1.296C56.973,48.033,55.488,48.546,54.599,48.96z M82.803,44.486
		c-0.277,0.136-1.008,0.457-1.338,0.583c-0.166-0.056-0.184-0.43-0.203-0.501c0.719-0.535,0.842-0.461,1.012-1.239
		c0.082-0.049,0.33-0.296,0.465-0.291C82.811,43.536,82.833,44.293,82.803,44.486z M79.165,34.82
		c0.668-0.096,1.287-0.729,0.596-1.312c0.416-0.247,1.086-0.627,1.645-0.746c0.027,0.497-0.012,0.674-0.035,1.014
		c0.344-0.217,0.904,0.08,1.137,0.39c0.377,1.338-0.172,2.355-1.658,2.671c-0.074,0.074-0.023,0.291,0.051,0.437
		c0.42-0.218,1.162-0.631,1.387-0.705c0,0,0.137,0.211,0.049,0.291c-1.262,0.73-3.188,1.915-4.68,2.528
		c-0.41-2.781,0.01-5.504,0.027-8.064c0.002-0.45,0.016-1.252-0.023-1.579c-0.053-0.41-0.176-1.847-0.053-2.792
		c0.023-0.052,0.473-0.655,0.498-0.705C78.299,28.808,78.26,34.978,79.165,34.82z M78.247,50.045
		c-0.748-0.079-4.217-0.442-4.508-0.375C74.375,48.956,76.862,49.063,78.247,50.045z M75.399,33.814
		c0.826-0.49,1.404-1.216,1.504-2.421c0.104,0,0.213,0,0.318,0C77.159,32.735,76.542,33.532,75.399,33.814z M77.559,22.083
		c0.311-0.345,0.289,0.3,0.414,1.212c-0.311,0.081-0.277,0.499-0.75,0.421C77.481,23.109,77.125,22.488,77.559,22.083z
		 M78.051,25.842c-0.094,0.09-0.344,0.099-0.508,0.082c-0.012-0.466,0.211-0.691,0.422-1.321
		C78.051,24.759,78.086,25.634,78.051,25.842z M78.104,21.793c-0.066-0.02-0.279,0.028-0.32,0.018
		c-0.178-2.141-0.619-3.583-1.076-3.99c0.412,0.726,0.787,2.567,0.85,3.958c-0.023,0.19-0.242,0.151-0.334,0.252
		c-0.104-1.896-0.555-3.852-1.545-5.011c0.188-0.146,0.689,0.438,0.902,0.701c-0.088-0.568-0.594-0.889-0.967-1.262
		C77.45,16.817,78.135,19.423,78.104,21.793z M75.936,28.974c0.619-0.117,0.52,1.382,0.967,1.789
		c0.166-0.342-0.129-1.392-0.324-1.999c0.467,0.363,0.828,1.339,0.537,2.103c0,0.249,0.291-0.038,0.215-0.209
		c0.23-0.018,0.047,0.374,0.109,0.525c-0.334,0.078-0.318-0.181-0.646-0.104c-0.352,0.954-0.387,2.214-1.717,2.209
		c0.559-0.525-0.252-1.021-0.215-1.683c0.324,0.313,0.377,0.893,0.645,1.263c0.355-0.423,0.326-1.226,0.646-1.684
		c-0.385-0.177-0.217-1.127-0.107-1.472C74.641,31.1,76.292,29.162,75.936,28.974z M71.553,2.783
		c0.002-0.012,0.002-0.02,0.006-0.031c0,0.007,0,0.014,0,0.02C71.557,2.775,71.554,2.78,71.553,2.783z M71.485,13.883
		c0.119,0.055,0.837,0.583,1.214,0.881c0,0,0.008,0.48,0.008,0.569c-0.434-0.017-0.862-0.063-1.276-0.033
		c-0.636,0.048-1.032,0.145-1.5,0.209c-0.102-0.335-0.084-0.627-0.104-1.033C70.279,14.324,70.944,13.946,71.485,13.883z
		 M71.326,33.814c0.016-0.422-0.274-0.915,0-1.264c0.106,0,0.214,0,0.322,0C71.555,32.987,71.894,33.844,71.326,33.814z
		 M68.752,22.874c-0.501,0.015-0.051,0.194-0.107,0.525c-1.568,0.214-2.929,0.631-4.181,1.159c0.295-0.238,0.125-0.712,0.573-0.857
		c-0.082-0.32-0.435,0.343-0.359-0.195c1.14-0.417,2.392-0.637,3.605-0.9c0,0-0.078-0.268,0.041-0.364
		c0.806-0.085,3.137-0.194,3.747-0.244c0.326-0.027,0.223,0.379,0.232,0.731C71.34,22.756,69.948,22.785,68.752,22.874z
		 M71.54,23.82c0,0.386,0,0.77,0,1.159c-0.605,0.024-1.148,0.05-1.607,0.104c-0.115-0.313-0.072-0.746,0.057-1.186
		C70.599,23.844,71.041,23.859,71.54,23.82z M69.634,24.948c-0.272,0.081-0.807-0.008-0.53,0.721
		c-1.936,0.217-3.23,0.654-4.639,1.201c-0.096-0.517-0.173-0.738-0.011-0.881c0.296-0.1,0.566-0.154,0.491-0.664
		c1.282-0.531,2.246-0.711,4.458-1.103c-0.012-0.11,0.019-0.192,0.014-0.257c0.066-0.001,0.203-0.032,0.242-0.015
		C69.705,24.15,69.532,24.735,69.634,24.948z M71.368,21.272c-0.083-0.555-0.038-2.97-0.038-3.544
		c0.019-0.044,0.117,0.305,0.14,0.266c0,0.493,0.101,2.642,0.213,3.261L71.368,21.272z M65.428,18.981
		c-0.42,0.969-0.698,2.287-0.764,3.602c0.204-0.792,1.21-4.952,3.222-5.32c1.107,0.024,1.516,1.054,1.66,1.341
		c0.447,0.035,0.624-0.733,0.572-1.172c0.158,1.385,0.05,2.514,0.023,3.913c-0.873,0.045-1.599,0.108-2.136,0.136
		c-0.283,0.246,0.281,0.308-0.005,0.551c-1.271,0.297-2.428,0.706-3.645,1.053C64.369,21.376,64.817,20.1,65.428,18.981z
		 M62.207,36.244c-0.283-0.008-0.928-0.273-1.069-0.747c-0.061-0.447,0.069-1.005,0.315-1.147c-0.113-0.045-0.26-0.073-0.391-0.127
		c0.019-0.247-0.075-1.656-0.148-2.632c0.179,0,0.583,0.015,0.761,0.015c0.147,0.538-0.046,2.196,0.231,3.146
		c0.75,0.112,0.287-2.562-0.231-3.251c-0.042-0.393,0.228-0.729,0.569-0.743c-0.074-0.883-0.074-1.481-0.008-1.696
		c-0.05-0.056,0.063-0.253-0.268-0.29c0.032-0.285,0.084-0.466,0.076-0.534c0.916-0.541,1.32-0.729,1.774-0.946
		C63.596,29.823,64.433,36.307,62.207,36.244z M61.032,30.763c0-0.35,0-0.703,0-1.052c0.146,0,0.287,0,0.429,0
		C61.292,30.036,61.548,30.777,61.032,30.763z M62.33,27.632c0.068-0.42,0.147-0.873,0.204-1.392
		c0.484-0.31,0.861-0.558,1.287-0.842c0,0.42,0,0.842,0,1.261C63.299,27.024,62.923,27.334,62.33,27.632z M61.561,24.946
		c0.492-0.397,1.546-0.784,2.045-1.125c0.006,0.429-0.015,0.815-0.161,0.86c-0.441,0.3-1.621,0.643-1.984,1.243
		C61.451,25.343,61.324,25.147,61.561,24.946z M61.156,26.698c0.225-0.236,0.599-0.596,0.643-0.655
		c0.11-0.044,0.194-0.073,0.352-0.128c-0.705,0.662-1.169,1.285-1.208,2.169C60.638,27.6,60.749,27.191,61.156,26.698z
		 M60.135,28.638l-0.063-0.447c0.078,0,0.762-0.053,0.873-0.055c0.004,0.081,0.047,0.317,0.058,0.429
		C60.962,28.585,60.241,28.619,60.135,28.638z M59.178,41.142c1.004-0.734,3.252-1.138,4.941-1.429
		c0.19-0.094,0.146-0.051,0.241-0.238c-0.008,0.078,0.091,0.263,0.218,0.628c-1.908,0.242-4.035,0.788-5.457,1.473
		C59.1,41.392,58.987,41.281,59.178,41.142z M59.541,42.19c-0.046-0.046-0.272-0.205-0.121-0.284
		c1.222-0.643,4.187-1.265,5.855-1.469c0.027,0.03,0.213,0.227,0.168,0.254C63.466,40.885,60.681,41.553,59.541,42.19z
		 M65.567,40.833l0.527,0.843c-2.454,0.239-4.147,0.631-6.133,1.603c-0.189-0.348-0.369-0.767-0.252-0.879
		C60.191,41.926,63.309,41.067,65.567,40.833z M71.402,44.568c-7.473,0.056-9.325,0.724-12.298,2.182
		c-0.072-0.238,0.146-0.426,0.341-0.552c0.712-0.459,1.868-0.541,1.91-1.656c2.805-1.073,6.324-1.252,9.646-1.152
		c-0.006,0.126,0,0.288,0.011,0.398c0.001,0.022,0.337,0.017,0.338,0.039c0.01,0.127,0.006,0.213-0.051,0.213
		c-0.424,0-2.269-0.084-2.66-0.05c-0.859,0.079-1.362,0.042-1.802,0.133c0.083,0.035-0.01,0.164,0.083,0.185
		c0.174-0.03,3.208-0.076,4.399-0.076C71.47,44.233,71.466,44.597,71.402,44.568z M67.387,42.178
		c1.176-0.026,2.45-0.041,3.556-0.049c0,0.222-0.003,0.47,0.014,0.706c0.002,0.022,0.404,0.015,0.405,0.041
		c0.009,0.078,0.021,0.151,0,0.253c-1.581,0.053-2.966,0.003-4.294,0.061c-0.042-0.091-0.032-0.2-0.021-0.264
		c0.008-0.043,0.315,0.012,0.322-0.032C67.396,42.686,67.351,42.43,67.387,42.178z M72.09,40.127c-1.627,0-5.339-0.043-6.958-0.004
		c-0.025-0.167-0.105-0.856,0.133-0.856c1.578,0,5.533-0.08,6.917,0.016C72.217,39.487,72.313,40.127,72.09,40.127z M72.641,38.406
		c-1.002-0.017-6.736-0.017-8.465-0.017c0.042-2.439,0.158-4.62,0.127-6.179c-0.038-0.219-0.087-0.307-0.162-0.501
		c0.739-1.206-0.211-3.736,0.965-4.312c-0.071-0.106-0.155-0.159-0.213-0.316c0.388-0.186,2.982-1.037,4.608-0.947
		c0.226-0.028-0.153-0.281,0.109-0.42c0.5-0.066,1.445-0.16,2.036,0c0,1.999,0,3.997,0,5.996c-0.126-0.314-0.208-0.568-0.323-0.842
		c-0.391,0-0.786,0-1.178,0c0-1.575,0-3.154,0-4.733c0.585-0.114,0.922,0.159,1.178-0.21c-0.301-0.047-1.118,0.016-1.363,0.016
		c0.011,0.716-0.052,4.271-0.021,4.926h-0.327c-0.055-0.82-0.533-1.755-0.97-2.521c-0.139,0.663,0.544,1.426,0.428,2.419
		c-0.137,0.146-0.505,0.063-0.642,0.209c-0.076,0.565,0.123,0.862,0.213,1.263c0.24-0.044,0.018-0.664,0.229-0.738
		c0.711-0.037,1.364-0.042,2.161-0.031l0.033,0.821c-0.487,0.094-0.456,0.863-0.275,1.526c-0.092,0.09-0.132-0.006-0.323,0.315
		h-1.396c-0.03-0.355-0.259-0.845-0.259-1.214c-0.367,0.958-0.554,2.078-0.169,3.317c0.051-0.19,0.029-0.462,0.215-0.526
		c0.572,0,1.144,0,1.715,0c0,0.631,0,1.263,0,1.892c0.579,0.369,1.651-0.169,2.143,0.107C72.606,37.734,72.641,38.406,72.641,38.406
		z M70.63,35.199c-0.682-0.073-1.154,0.044-1.836-0.028C69.17,34.92,70.56,34.451,70.63,35.199z M72.825,21.191
		c-0.283,0-0.549,0.043-0.836,0.043c-0.495-0.903-0.033-2.189-0.288-3.205c0.819-0.828,2.667,0.898,2.919,1.718
		c0.461,0.411,0.393,0.95,0.438,1.516c-1.311-0.2-1.225,0.599-2.016,0.454C72.995,21.516,72.735,21.526,72.825,21.191z
		 M73.227,48.699c0.264-0.224,0.67-0.121,1.381,0.051c-0.742,0.174-1.326,0.677-1.473,1.211
		C73.053,49.472,72.969,48.928,73.227,48.699z M78.776,51.308c-2.268-0.176-4.309-0.365-5.59-0.483
		C74.235,49.874,77.065,50.459,78.776,51.308z M73.356,59.417c1.047-0.948,3.945-0.373,5.652,0.477
		C76.743,59.719,74.633,59.536,73.356,59.417z M78.987,61.166c-2.264-0.174-4.344-0.358-5.623-0.477
		C74.413,59.738,77.28,60.317,78.987,61.166z M73.356,58.198c1.047-0.949,3.934-0.401,5.643,0.449
		C76.733,58.471,74.633,58.317,73.356,58.198z M73.344,54.429c1.049-0.95,3.975-0.361,5.682,0.487
		C76.762,54.741,74.625,54.548,73.344,54.429z M79.018,56.197c-2.266-0.177-4.404-0.37-5.684-0.488
		C74.381,54.76,77.309,55.347,79.018,56.197z M73.374,53.151c1.049-0.949,3.926-0.374,5.635,0.476
		C76.743,53.45,74.655,53.268,73.374,53.151z M73.327,51.961c1.045-0.95,3.994-0.361,5.701,0.487
		C76.762,52.272,74.604,52.078,73.327,51.961z M79.004,57.386c-2.264-0.175-4.41-0.359-5.688-0.478
		C74.362,55.96,77.297,56.536,79.004,57.386z M79.028,62.515c-2.266-0.176-4.393-0.37-5.672-0.488
		C74.403,61.078,77.319,61.665,79.028,62.515z M79.067,63.786c-2.266-0.175-4.389-0.362-5.672-0.48
		C74.444,62.356,77.358,62.938,79.067,63.786z M73.797,65.567c0.637-0.009,1.742-0.009,2.654,0.214
		c0.305,0.347,0.279,1.212,0.336,1.394c-1.357-0.374-2.67-0.271-3.236-0.267C73.469,66.309,73.504,65.779,73.797,65.567z
		 M73.667,72.603c-0.102-0.188,0.01-0.795,0.043-1.015c0.266-0.09,2.57-0.02,3.035,0.23c0.061,0.472,0.035,0.39,0.064,0.973
		C75.282,72.582,74.458,72.536,73.667,72.603z M73.667,71.23c-0.102-0.188,0.01-0.798,0.043-1.015
		c0.266-0.089,2.57-0.019,3.035,0.232c0.061,0.471,0.035,0.388,0.064,0.972C75.282,71.209,74.458,71.163,73.667,71.23z
		 M73.667,69.772c-0.102-0.187,0.01-0.796,0.043-1.014c0.266-0.09,2.57-0.018,3.035,0.232c0.061,0.47,0.035,0.388,0.064,0.972
		C75.282,69.752,74.458,69.707,73.667,69.772z M73.667,68.337c-0.102-0.189,0.01-0.797,0.043-1.014
		c0.266-0.091,2.57-0.019,3.035,0.23c0.061,0.471,0.035,0.389,0.064,0.973C75.282,68.315,74.458,68.271,73.667,68.337z
		 M73.446,64.695c1.047-0.951,3.93-0.371,5.639,0.479C76.819,64.999,74.727,64.813,73.446,64.695z M79.807,66.164
		c-0.582-0.226-0.318-0.926-0.605-0.951c-0.016-1.391,0.031-10.211-0.01-12.73c0.039-2.36-1.463-3.253-1.697-3.611
		c0.262-0.109,2.342,1.69,2.428,4.002c0.049,1.37-0.033,9.761-0.033,11.235C79.889,64.36,79.942,65.9,79.807,66.164z M79.584,39.506
		c0.277-0.434,0.148-0.149-0.098-0.509c0.631-0.326,2.531-1.411,2.994-1.7c0.023,0.195,0.213,1.853,0.053,1.919
		c-0.148,0.05-1.561,0.729-1.832,0.825C80.417,40.018,79.821,39.606,79.584,39.506z M80.948,40.454
		c0.271-0.122,1.162-0.631,1.607-0.827c0,0,0.059,1.222,0.1,1.337c-0.1,0.122-1.068,0.706-1.678,0.948
		C81.198,41.353,81.202,40.832,80.948,40.454z M82.432,45.815c-0.445,0.263-1.057,0.463-1.244,0.2
		c0.537-0.182,0.199-0.441,0.398-0.691c0.049-0.045,1.227-0.575,1.227-0.575c0.047-0.008,0.094,0.374,0.094,0.547
		C82.758,45.44,82.586,45.623,82.432,45.815z M83.12,34.55c0.529-0.437,1.15,0.142,1.041,1.03c-0.037,0.25-0.297,0.292-0.316-0.054
		C83.864,34.95,83.667,34.553,83.12,34.55z M88.25,42.931c0.455,0.062,1.154-0.043,1.518-0.072c-0.037,0.522,0.02,1.688,0.109,2.09
		C88.401,44.393,88.446,43.543,88.25,42.931z M88.159,42.333c0.043-0.253-0.193-0.229-0.107-0.526
		c0.904,0.263,1.818-0.532,1.287-1.367c-0.238,0.045-0.043,0.518-0.107,0.737c-0.289,0.136-0.379,0.468-0.855,0.421
		c0.141-0.268,0.797-0.4,0.426-0.841c-0.197,0.016-0.066,0.355-0.213,0.419c-0.305-0.16-0.422-0.497-0.965-0.419
		c0.174-0.777,0.17-1.725,0.32-2.525c0.145,0,0.287,0,0.432,0c0.162,0.152,0.092,0.538,0.105,0.841
		C90.555,39.297,90.741,42.503,88.159,42.333z"/>
</g>
<g id="Rules">
	<rect x="0" y="74" fill="#231F20" width="143" height="1"/>
	<rect x="0" y="75" fill="#FFFFFF" width="143" height="1"/>
	<rect x="0" y="98" fill="#231F20" width="143" height="1"/>
	<rect x="0" y="99" fill="#FFFFFF" width="143" height="1"/>
	<rect x="31" y="116" fill="#231F20" width="82" height="1"/>
	<rect x="31" y="117" fill="#FFFFFF" width="82" height="1"/>
</g>
<g id="State_University">
	<g>
		<path fill="#971B22" d="M31.156,109.551c0.244,0.154,0.782,0.416,1.445,0.416c0.546,0,1.034-0.301,1.034-0.979
			c0-0.482-0.282-0.697-0.886-1.027l-0.635-0.348C31.439,107.244,31,106.711,31,105.84c0-1.209,1.005-1.84,2.147-1.84
			c0.722,0,1.23,0.186,1.426,0.244l-0.059,1.033c-0.302-0.113-0.703-0.289-1.279-0.289c-0.624,0-0.946,0.328-0.946,0.795
			c0,0.502,0.343,0.697,0.723,0.908l0.731,0.408c0.802,0.443,1.183,0.871,1.183,1.818c0,1.379-0.986,2.035-2.285,2.035
			c-0.682,0-1.21-0.098-1.552-0.301L31.156,109.551z"/>
		<path fill="#971B22" d="M37.179,105.084h-1.522v-0.984h4.285v0.984H38.43v5.773h-1.25V105.084z"/>
		<path fill="#971B22" d="M44.287,109.23h-2.342l-0.488,1.627h-1.251l2.286-6.76h1.367l2.196,6.76h-1.289L44.287,109.23z
			 M44.023,108.281l-0.859-3.158h-0.019l-0.937,3.158H44.023z"/>
		<path fill="#971B22" d="M47.645,105.084h-1.524v-0.984h4.287v0.984h-1.514v5.773h-1.249V105.084z"/>
		<path fill="#971B22" d="M51.579,104.099h3.583v0.984h-2.333v1.803h2.205v0.988h-2.205v1.994h2.43v0.988h-3.68V104.099z"/>
		<path fill="#971B22" d="M62.436,104.099v4.377c0,1.123,0.341,1.49,1.074,1.49c0.711,0,1.063-0.367,1.063-1.49v-4.377h1.25v4.377
			c0,1.781-1.036,2.477-2.313,2.477c-1.29,0-2.323-0.695-2.323-2.477v-4.377H62.436z"/>
		<path fill="#971B22" d="M67.541,104.099h1.484l2.265,5.307h0.02v-5.307h1.133v6.758h-1.493l-2.256-5.268h-0.018v5.268h-1.134
			V104.099z"/>
		<path fill="#971B22" d="M74.228,104.099h1.251v6.758h-1.251V104.099z"/>
		<path fill="#971B22" d="M76.825,104.099h1.349l1.374,5.209h0.021l1.416-5.209h1.288l-2.078,6.758h-1.319L76.825,104.099z"/>
		<path fill="#971B22" d="M83.415,104.099h3.582v0.984h-2.333v1.803h2.207v0.988h-2.207v1.994h2.429v0.988h-3.678V104.099z"/>
		<path fill="#971B22" d="M88.775,104.099h2.127c1.212,0,2.03,0.541,2.03,1.781c0,0.881-0.557,1.473-1.316,1.588v0.027
			c0.253,0.039,0.536,0.154,0.752,0.785l0.889,2.576h-1.329l-0.673-2.199c-0.166-0.531-0.487-0.707-0.947-0.707h-0.283v2.906h-1.247
			v-6.758H88.775z M90.532,107.041c0.663,0,1.112-0.34,1.112-1.025c0-0.775-0.408-0.971-1.112-0.971h-0.508v1.996H90.532z"/>
		<path fill="#971B22" d="M94.71,109.551c0.243,0.154,0.777,0.416,1.444,0.416c0.547,0,1.033-0.301,1.033-0.979
			c0-0.482-0.283-0.697-0.889-1.027l-0.634-0.348c-0.675-0.369-1.113-0.902-1.113-1.773c0-1.209,1.006-1.84,2.148-1.84
			c0.72,0,1.229,0.186,1.425,0.244l-0.06,1.033c-0.305-0.113-0.704-0.289-1.279-0.289c-0.622,0-0.946,0.328-0.946,0.795
			c0,0.502,0.344,0.697,0.723,0.908l0.732,0.408c0.8,0.443,1.181,0.871,1.181,1.818c0,1.379-0.985,2.035-2.284,2.035
			c-0.683,0-1.208-0.098-1.552-0.301L94.71,109.551z"/>
		<path fill="#971B22" d="M100.03,104.099h1.249v6.758h-1.249V104.099z"/>
		<path fill="#971B22" d="M104.276,105.084h-1.522v-0.984h4.287v0.984h-1.516v5.773h-1.249V105.084z"/>
		<path fill="#971B22" d="M109.871,108.146l-2.011-4.049h1.348l1.328,2.701l1.249-2.701h1.347l-2.012,4.076v2.684h-1.249V108.146z"
			/>
	</g>
</g>
<g id="Bridgewater">
	<path d="M2.486,82.463c0-1.16-0.144-1.771-1.578-1.771H0.191v-0.387c0.575-0.021,1.987-0.102,2.583-0.121
		c1.128-0.043,2.686-0.062,3.076-0.062c1.804,0,3.382,0.266,4.121,0.795c0.842,0.59,1.251,1.281,1.251,2.258
		c0,1.16-0.963,2.238-2.336,2.48v0.039c1.928,0.57,3.055,1.812,3.055,3.398c0,1.607-1.127,3.865-4.429,3.865H0.007V92.57h0.473
		c1.681,0,2.009-0.387,2.009-1.67v-8.438H2.486z M4.189,85.595h2.234c1.968,0,2.952-0.773,2.952-2.361
		c0-1.424-0.862-2.725-3.384-2.725c-0.451,0-1.292,0.041-1.803,0.061L4.189,85.595L4.189,85.595z M4.189,90.314
		c0,1.547,0.614,2.098,2.336,2.098c2.707,0,3.485-1.67,3.485-3.258c0-1.564-1.208-3.174-3.608-3.174H4.189V90.314z"/>
	<path d="M16.284,91.047c0,1.221,0.492,1.525,1.64,1.525h0.471v0.387h-5.802v-0.387h0.35c1.21,0,1.64-0.326,1.64-1.689V82.32
		c0-1.262-0.35-1.627-1.538-1.627h-0.452v-0.389c0.493,0,1.743-0.08,2.583-0.121c0.841-0.041,1.251-0.061,2.584-0.061
		c3.793,0,5.496,1.545,5.496,3.621c0,1.523-1.046,2.809-2.729,3.295c0.758,0.592,1.375,1.16,2.337,2.115l1.62,1.607
		c1.209,1.199,2.438,1.725,4.016,1.826v0.365c-3.587,0.164-4.487-0.381-6.312-2.191l-1.352-1.344
		c-0.902-0.896-1.62-1.484-2.112-1.811c-0.513,0.021-0.841,0.041-1.396,0.041c-0.451,0-0.716-0.02-1.044-0.041V91.047z
		 M16.284,87.222c0.492,0.062,0.798,0.041,1.271,0.041c2.275,0,3.773-0.957,3.773-3.396c0-1.893-0.86-3.357-4.018-3.357
		c-0.39,0-0.656,0-1.025,0.041V87.222z"/>
	<path d="M32.089,92.959h-4.982v-0.387c1.271-0.062,1.539-0.387,1.539-1.75v-8.666c0-1.098-0.389-1.404-1.539-1.465v-0.387h4.982
		v0.387c-1.29,0-1.741,0.285-1.741,1.646v8.627c0,1.199,0.327,1.607,1.741,1.607V92.959z"/>
	<path d="M35.288,82.34c0-1.322-0.348-1.646-1.558-1.646H33.32v-0.389c0.758-0.039,1.762-0.08,2.891-0.121
		c1.127-0.041,2.377-0.061,3.444-0.061c5.413,0,7.812,2.725,7.812,6.082c0,3.072-2.399,6.754-7.587,6.754h-6.561v-0.387h0.348
		c1.108,0,1.62-0.307,1.62-1.484V82.34z M36.99,91.455c0,0.834,0.062,1.119,1.682,1.119c2.748,0,3.896-0.389,5.165-1.648
		c0.758-0.734,1.702-2.299,1.702-4.395c0-1.506-0.43-3.174-1.64-4.373c-0.942-0.938-2.398-1.648-5.27-1.648
		c-0.839,0-1.394,0.061-1.64,0.082v10.863H36.99z"/>
	<path d="M61.059,92.004c-2.03,1.035-4.635,1.281-5.495,1.281c-4.491,0-6.581-3.438-6.581-6.408c0-3.053,2.152-6.877,7.154-6.877
		c2.193,0,3.649,0.691,4.08,0.691c0.184,0,0.35-0.039,0.472-0.143h0.288v3.295h-0.41c-0.554-2.541-2.296-3.336-4.203-3.336
		c-3.608,0-5.455,2.973-5.455,6.246c0,4.17,2.953,6.02,5.312,6.02c0.942,0,1.987-0.201,3.136-0.77v-2.564
		c0-1.16-0.411-1.547-1.641-1.547h-0.758v-0.365h5.537v0.365c-1.026,0.061-1.436,0.406-1.436,1.281V92.004z"/>
	<path d="M72.087,88.381h-0.389c-0.163-1.443-0.555-1.605-1.393-1.605h-3.466v4.332c0,0.938,0.349,1.119,1.107,1.119h3.157
		c1.436,0,1.868-0.549,2.38-2.299h0.368l-0.329,3.031H62.637v-0.387h0.573c1.641,0,1.926-0.447,1.926-1.67v-8.584
		c0-1.139-0.265-1.627-1.639-1.627h-0.45v-0.387h9.841l0.164,2.828h-0.369c-0.268-1.73-0.779-2.096-1.518-2.096h-4.326v5.004h3.67
		c0.738,0,1.087-0.348,1.189-1.525h0.389V88.381L72.087,88.381z"/>
	<path d="M87.034,93.285L84.346,87l-2.585,6.285h-1.003l-4.264-10.822c-0.614-1.545-1.107-1.77-2.42-1.77h-0.123v-0.389h5.31v0.389
		h-0.346c-0.966,0-1.335,0.428-0.985,1.281l3.731,9.316l2.214-5.432l-1.661-4.01c-0.41-0.996-1.025-1.158-2.111-1.158v-0.387h8.405
		v0.387c-1.271,0-1.702,0.307-2.029,1.078l-1.312,3.174l2.686,6.348l3.63-9.439c0.328-0.834,0.062-1.117-1.437-1.158v-0.389h4.244
		v0.389c-1.251,0-1.535,0.242-2.152,1.852l-4.122,10.74H87.034z M85.617,81.566c0.229-0.549,0.083-0.873-0.511-0.873h-0.861
		c-0.533,0-0.82,0.203-0.574,0.752l1.024,2.359L85.617,81.566z"/>
	<path d="M95.172,87.345l-1.189,3.193c-0.144,0.385-0.41,0.996-0.41,1.279c0,0.549,0.533,0.754,1.66,0.754h0.328v0.387h-4.735
		v-0.387c1.334-0.021,1.559-0.244,2.215-2.014l3.73-10.111L96.587,80h1.782l4.285,11.291c0.411,1.076,0.841,1.281,1.867,1.281v0.387
		h-5.639v-0.387h0.533c1.168,0,1.6-0.121,1.6-0.691c0-0.326-0.145-0.631-0.228-0.834l-1.372-3.701H95.172z M97.263,81.711
		l-1.743,4.738h3.547L97.263,81.711z"/>
	<path d="M109.542,91.088c0,1.098,0.369,1.484,1.619,1.484h0.761v0.387h-6.462v-0.387h0.762c1.25,0,1.619-0.387,1.619-1.484V81.039
		h-3.566c-0.82,0-1.188,0.469-1.496,2.26h-0.37l0.327-3.297h0.391c0.02,0.121,0.104,0.203,0.225,0.244
		c0.123,0.041,0.268,0.061,0.412,0.061h9.86c0.288,0,0.595-0.061,0.635-0.305h0.392l0.327,3.297h-0.368
		c-0.311-1.791-0.676-2.26-1.499-2.26h-3.565v10.049H109.542z"/>
	<path d="M124.425,88.381h-0.389c-0.163-1.443-0.554-1.605-1.396-1.605h-3.465v4.332c0,0.938,0.35,1.119,1.108,1.119h3.155
		c1.437,0,1.866-0.549,2.379-2.299h0.369l-0.33,3.031h-10.885v-0.387h0.574c1.64,0,1.927-0.447,1.927-1.67v-8.584
		c0-1.139-0.267-1.627-1.642-1.627h-0.449v-0.387h9.84l0.163,2.828h-0.367c-0.267-1.73-0.779-2.096-1.519-2.096h-4.325v5.004h3.672
		c0.737,0,1.085-0.348,1.189-1.525h0.388L124.425,88.381L124.425,88.381z"/>
	<path d="M130.762,91.047c0,1.221,0.491,1.525,1.64,1.525h0.474v0.387h-5.807v-0.387h0.351c1.211,0,1.642-0.326,1.642-1.689V82.32
		c0-1.262-0.35-1.627-1.538-1.627h-0.452v-0.389c0.493,0,1.743-0.08,2.586-0.121c0.838-0.041,1.249-0.061,2.581-0.061
		c3.794,0,5.495,1.545,5.495,3.621c0,1.523-1.047,2.809-2.728,3.295c0.758,0.592,1.375,1.16,2.337,2.115l1.62,1.607
		c1.208,1.199,2.459,1.953,4.037,2.055v0.365c-3.586,0.164-4.508-0.609-6.333-2.42l-1.354-1.344
		c-0.901-0.896-1.619-1.484-2.111-1.811c-0.512,0.021-0.843,0.041-1.396,0.041c-0.453,0-0.717-0.02-1.044-0.041V91.047
		L130.762,91.047z M130.762,87.222c0.491,0.062,0.798,0.041,1.269,0.041c2.278,0,3.773-0.957,3.773-3.396
		c0-1.893-0.859-3.357-4.02-3.357c-0.387,0-0.654,0-1.021,0.041L130.762,87.222L130.762,87.222z"/>
</g>
</svg>
